<svg xmlns="http://www.w3.org/2000/svg" viewBox="0 0 512 512" role="img" aria-labelledby="title desc">
  <title id="title">BitMart BMX research logo</title>
  <desc id="desc">A compact BMX monogram for the Research Map.</desc>
  <rect width="512" height="512" rx="96" fill="#2563EB"/>
  <path d="M147 144h118c55 0 88 25 88 68 0 28-15 48-41 59 35 10 54 33 54 67 0 48-38 76-98 76H147V144zm105 105c27 0 42-10 42-29s-15-29-42-29h-44v58h44zm10 119c29 0 45-12 45-34s-16-33-45-33h-54v67h54z" fill="#ffffff"/>
  <text x="256" y="454" text-anchor="middle" font-family="Inter, Arial, sans-serif" font-size="52" font-weight="800" fill="#ffffff">BMX</text>
</svg>
