<svg xmlns="http://www.w3.org/2000/svg" width="128" height="128" viewBox="0 0 128 128" role="img" aria-label="Bitway BTW logo">
  <rect width="128" height="128" rx="24" fill="#111827"/>
  <path d="M26 86h76v12H26z" fill="#F59E0B"/>
  <path d="M34 30h31c14 0 23 7 23 18 0 6-3 11-8 14 8 3 13 9 13 18 0 13-10 21-26 21H34V30zm29 28c7 0 11-3 11-9 0-5-4-8-11-8H49v17h14zm3 31c8 0 12-4 12-10s-4-10-12-10H49v20h17z" fill="#fff"/>
  <path d="M94 29h11L88 99H77l5-20-14-50h12l8 33 6-33z" fill="#F59E0B"/>
</svg>
