<svg width="256" height="256" viewBox="0 0 256 256" fill="none" xmlns="http://www.w3.org/2000/svg">
  <rect width="256" height="256" rx="48" fill="#F0B90B"/>
  <path d="M128 42L164 78L128 114L92 78L128 42Z" fill="#FFFFFF"/>
  <path d="M78 92L114 128L78 164L42 128L78 92Z" fill="#FFFFFF"/>
  <path d="M178 92L214 128L178 164L142 128L178 92Z" fill="#FFFFFF"/>
  <path d="M128 142L164 178L128 214L92 178L128 142Z" fill="#FFFFFF"/>
  <path d="M128 94L162 128L128 162L94 128L128 94Z" fill="#FFFFFF"/>
  <path d="M128 112L144 128L128 144L112 128L128 112Z" fill="#F0B90B"/>
</svg>
