<svg xmlns="http://www.w3.org/2000/svg" viewBox="0 0 96 96" role="img" aria-labelledby="title desc">
  <title id="title">Convex Finance</title>
  <desc id="desc">Convex Finance research logo</desc>
  <rect width="96" height="96" rx="20" fill="#EC4899"/>
  <circle cx="48" cy="48" r="34" fill="#FFFFFF" opacity="0.14"/>
  <path d="M63 30c-5-4-10-6-17-6-14 0-25 10-25 24s11 24 25 24c7 0 13-2 18-6l-6-9c-3 3-7 4-12 4-8 0-14-5-14-13s6-13 14-13c5 0 9 1 12 4l5-9z" fill="#FFFFFF"/>
  <path d="M56 35l16 13-16 13" fill="none" stroke="#FFFFFF" stroke-width="6" stroke-linecap="round" stroke-linejoin="round" opacity="0.72"/>
</svg>
