<svg xmlns="http://www.w3.org/2000/svg" viewBox="0 0 96 96" role="img" aria-labelledby="title desc">
  <title id="title">Cortex</title>
  <desc id="desc">Cortex research logo</desc>
  <rect width="96" height="96" rx="20" fill="#DC2626"/>
  <circle cx="48" cy="48" r="34" fill="#FFFFFF" opacity="0.14"/>
  <path d="M62 31c-4-4-9-6-15-6-13 0-23 10-23 23s10 23 23 23c7 0 12-2 16-6l-6-9c-3 3-6 4-10 4-7 0-12-5-12-12s5-12 12-12c4 0 7 1 10 4l5-9z" fill="#FFFFFF"/>
  <path d="M60 36l13 24M73 36L60 60" stroke="#FFFFFF" stroke-width="6" stroke-linecap="round" opacity="0.78"/>
</svg>
