<svg xmlns="http://www.w3.org/2000/svg" viewBox="0 0 96 96" role="img" aria-labelledby="title desc">
  <title id="title">EURCV</title>
  <desc id="desc">EUR CoinVertible research logo</desc>
  <rect width="96" height="96" rx="20" fill="#059669"/>
  <circle cx="48" cy="48" r="34" fill="#FFFFFF" opacity="0.14"/>
  <path d="M63 27c-5-4-11-6-18-6-13 0-23 8-27 20h-6v7h5v2h-5v7h6c4 12 14 20 28 20 7 0 13-2 18-6l-5-9c-4 3-8 4-13 4-7 0-13-3-16-9h23v-7H28v-2h25v-7H30c3-6 8-9 16-9 5 0 9 1 13 4l4-9z" fill="#FFFFFF"/>
</svg>
