<svg xmlns="http://www.w3.org/2000/svg" viewBox="0 0 512 512" role="img" aria-labelledby="title desc">
  <title id="title">Fartcoin research logo</title>
  <desc id="desc">A compact Fartcoin monogram for the Research Map.</desc>
  <rect width="512" height="512" rx="96" fill="#C2410C"/>
  <path d="M147 286c0-79 64-143 143-143 28 0 54 8 76 22-16-7-34-11-53-11-74 0-134 60-134 134 0 39 17 74 44 99-45-24-76-71-76-101z" fill="#ffffff" opacity=".18"/>
  <path d="M167 271h178v47H167v-47zm0-83h204v47H167v-47zm0 166h129v47H167v-47z" fill="#ffffff"/>
  <text x="256" y="452" text-anchor="middle" font-family="Inter, Arial, sans-serif" font-size="44" font-weight="800" fill="#ffffff">FART</text>
</svg>
