<svg xmlns="http://www.w3.org/2000/svg" viewBox="0 0 512 512" role="img" aria-labelledby="title desc">
  <title id="title">GALA research logo</title>
  <desc id="desc">A compact GALA monogram for the Research Map.</desc>
  <rect width="512" height="512" rx="96" fill="#111827"/>
  <path d="M138 257c0-72 54-126 132-126 48 0 86 19 110 53l-49 37c-14-19-34-29-59-29-39 0-67 28-67 65 0 39 29 66 70 66 19 0 36-4 50-13v-30h-62v-50h118v111c-30 25-67 38-110 38-79 0-133-51-133-122z" fill="#ffffff"/>
  <text x="256" y="448" text-anchor="middle" font-family="Inter, Arial, sans-serif" font-size="54" font-weight="800" fill="#ffffff">GALA</text>
</svg>
