<svg xmlns="http://www.w3.org/2000/svg" viewBox="0 0 512 512" role="img" aria-labelledby="title desc">
  <title id="title">GoMining Token research logo</title>
  <desc id="desc">A compact GOM monogram for the Research Map.</desc>
  <rect width="512" height="512" rx="96" fill="#F7931A"/>
  <circle cx="256" cy="230" r="122" fill="#ffffff" opacity=".18"/>
  <path d="M167 297c-18-22-27-48-27-79 0-73 55-128 128-128 41 0 75 15 100 44l-41 36c-15-17-34-25-57-25-39 0-67 31-67 73s28 74 68 74c18 0 34-5 47-16v-30h-58v-49h113v107c-26 24-61 37-105 37-43 0-77-15-101-44z" fill="#ffffff"/>
  <text x="256" y="430" text-anchor="middle" font-family="Inter, Arial, sans-serif" font-size="54" font-weight="800" fill="#ffffff">GOM</text>
</svg>
