<svg xmlns="http://www.w3.org/2000/svg" viewBox="0 0 256 256" role="img" aria-labelledby="title desc">
  <title id="title">Humanity H logo</title>
  <desc id="desc">A stylized H monogram with identity rings.</desc>
  <defs>
    <linearGradient id="bg" x1="24" y1="20" x2="226" y2="236" gradientUnits="userSpaceOnUse">
      <stop offset="0" stop-color="#0f172a"/>
      <stop offset="0.52" stop-color="#be185d"/>
      <stop offset="1" stop-color="#f97316"/>
    </linearGradient>
    <linearGradient id="ring" x1="64" y1="54" x2="190" y2="202" gradientUnits="userSpaceOnUse">
      <stop offset="0" stop-color="#ffffff"/>
      <stop offset="1" stop-color="#fdf2f8"/>
    </linearGradient>
  </defs>
  <rect width="256" height="256" rx="58" fill="url(#bg)"/>
  <circle cx="128" cy="128" r="82" fill="none" stroke="url(#ring)" stroke-width="10" opacity="0.9"/>
  <circle cx="128" cy="128" r="58" fill="none" stroke="#ffffff" stroke-width="4" opacity="0.38"/>
  <path d="M82 74c10 0 18 8 18 18v28h56V92c0-10 8-18 18-18s18 8 18 18v72c0 10-8 18-18 18s-18-8-18-18v-16h-56v16c0 10-8 18-18 18s-18-8-18-18V92c0-10 8-18 18-18Z" fill="#ffffff"/>
  <path d="M72 194c19 15 37 22 56 22s37-7 56-22" fill="none" stroke="#fff7ed" stroke-width="8" stroke-linecap="round" opacity="0.8"/>
  <path d="M68 62c18-14 38-22 60-22s42 8 60 22" fill="none" stroke="#ffffff" stroke-width="7" stroke-linecap="round" opacity="0.45"/>
</svg>
