<svg xmlns="http://www.w3.org/2000/svg" viewBox="0 0 120 120" role="img" aria-labelledby="title desc">
  <title id="title">Injective INJ</title>
  <desc id="desc">Injective finance L1 research mark</desc>
  <rect width="120" height="120" rx="22" fill="#06B6D4"/>
  <path d="M27 72c0-24.8 20.2-45 45-45 8.3 0 16 2.2 22.7 6.1C86.7 22.8 74.1 16 60 16c-24.3 0-44 19.7-44 44 0 14.1 6.7 26.7 17.1 34.7A44.8 44.8 0 0 1 27 72Z" fill="#FFFFFF" opacity="0.85"/>
  <path d="M93 48c0 24.8-20.2 45-45 45-8.3 0-16-2.2-22.7-6.1C33.3 97.2 45.9 104 60 104c24.3 0 44-19.7 44-44 0-14.1-6.7-26.7-17.1-34.7A44.8 44.8 0 0 1 93 48Z" fill="#FFFFFF" opacity="0.62"/>
  <path d="M42 38h12v44H42V38Zm24 0h12v44H66V38Z" fill="#FFFFFF"/>
  <text x="60" y="105" text-anchor="middle" font-family="Arial, Helvetica, sans-serif" font-size="13" font-weight="700" fill="#FFFFFF">INJ</text>
</svg>
