<svg xmlns="http://www.w3.org/2000/svg" viewBox="0 0 256 256" role="img" aria-labelledby="title desc">
  <title id="title">MegaUSD logo</title>
  <desc id="desc">A stylized USDm monogram for MegaUSD.</desc>
  <defs>
    <linearGradient id="bg" x1="32" y1="18" x2="230" y2="236" gradientUnits="userSpaceOnUse">
      <stop offset="0" stop-color="#111827"/>
      <stop offset="0.5" stop-color="#ff4d00"/>
      <stop offset="1" stop-color="#facc15"/>
    </linearGradient>
    <linearGradient id="shine" x1="78" y1="58" x2="178" y2="198" gradientUnits="userSpaceOnUse">
      <stop offset="0" stop-color="#ffffff"/>
      <stop offset="1" stop-color="#fff7ed"/>
    </linearGradient>
  </defs>
  <rect width="256" height="256" rx="56" fill="url(#bg)"/>
  <path d="M54 74c0-12 10-22 22-22h104c12 0 22 10 22 22v108c0 12-10 22-22 22H76c-12 0-22-10-22-22V74Z" fill="#111827" opacity="0.32"/>
  <path d="M74 170V86h22l32 44 32-44h22v84h-24v-47l-24 33h-12l-24-33v47H74Z" fill="url(#shine)"/>
  <path d="M78 194h100" stroke="#ffffff" stroke-width="10" stroke-linecap="round" opacity="0.9"/>
  <path d="M86 62c16-10 30-15 42-15s26 5 42 15" fill="none" stroke="#ffffff" stroke-width="7" stroke-linecap="round" opacity="0.42"/>
  <circle cx="205" cy="59" r="14" fill="#ffffff" opacity="0.86"/>
  <circle cx="205" cy="59" r="6" fill="#ff4d00"/>
</svg>
