<svg xmlns="http://www.w3.org/2000/svg" viewBox="0 0 256 256" role="img" aria-labelledby="title desc">
  <title id="title">OnRe ONYC logo</title>
  <desc id="desc">A stylized shield and yield wave monogram for OnRe.</desc>
  <defs>
    <linearGradient id="bg" x1="24" y1="20" x2="232" y2="236" gradientUnits="userSpaceOnUse">
      <stop offset="0" stop-color="#052e2b"/>
      <stop offset="0.52" stop-color="#0f766e"/>
      <stop offset="1" stop-color="#84cc16"/>
    </linearGradient>
    <linearGradient id="mark" x1="68" y1="52" x2="184" y2="204" gradientUnits="userSpaceOnUse">
      <stop offset="0" stop-color="#ffffff"/>
      <stop offset="1" stop-color="#ecfccb"/>
    </linearGradient>
  </defs>
  <rect width="256" height="256" rx="56" fill="url(#bg)"/>
  <path d="M128 38 190 62v56c0 42-23 77-62 100-39-23-62-58-62-100V62l62-24Z" fill="#042f2e" opacity="0.42"/>
  <path d="M128 56 174 74v43c0 30-16 56-46 75-30-19-46-45-46-75V74l46-18Z" fill="none" stroke="url(#mark)" stroke-width="12" stroke-linejoin="round"/>
  <path d="M82 135c20-24 43-24 68 0 9 9 17 12 24 10" fill="none" stroke="#ffffff" stroke-width="12" stroke-linecap="round"/>
  <path d="M84 109c14-15 29-22 45-22 17 0 32 8 45 24" fill="none" stroke="#d9f99d" stroke-width="8" stroke-linecap="round" opacity="0.85"/>
  <circle cx="128" cy="135" r="13" fill="#ffffff"/>
  <circle cx="128" cy="135" r="6" fill="#0f766e"/>
</svg>
