<svg xmlns="http://www.w3.org/2000/svg" viewBox="0 0 128 128" role="img" aria-labelledby="title desc">
  <title id="title">PancakeSwap CAKE research logo</title>
  <desc id="desc">A local CAKE monogram mark for the Research Map.</desc>
  <rect width="128" height="128" rx="24" fill="#1FC7D4"/>
  <circle cx="64" cy="70" r="42" fill="#D1884F"/>
  <path d="M36 67c0-18 11-31 28-31s28 13 28 31c0 21-11 34-28 34S36 88 36 67z" fill="#FEDC90"/>
  <path d="M45 39c-8-18-4-29 7-31 10-2 18 10 19 29h-9c-2-14-5-20-9-19-4 1-4 8 1 19l-9 2z" fill="#633001"/>
  <path d="M83 39c8-18 4-29-7-31-10-2-18 10-19 29h9c2-14 5-20 9-19 4 1 4 8-1 19l9 2z" fill="#633001"/>
  <circle cx="50" cy="69" r="6" fill="#633001"/>
  <circle cx="78" cy="69" r="6" fill="#633001"/>
  <path d="M50 88c8 8 20 8 28 0" fill="none" stroke="#633001" stroke-width="5" stroke-linecap="round"/>
  <rect x="26" y="94" width="76" height="24" rx="12" fill="#633001"/>
  <text x="64" y="111" text-anchor="middle" font-family="Arial, Helvetica, sans-serif" font-size="18" font-weight="700" fill="#FEDC90">CAKE</text>
</svg>
