<svg xmlns="http://www.w3.org/2000/svg" viewBox="0 0 128 128" role="img" aria-labelledby="title desc">
  <title id="title">Pi Network</title>
  <desc id="desc">A purple and gold Pi Network research mark.</desc>
  <defs>
    <linearGradient id="bg" x1="18" x2="110" y1="16" y2="116" gradientUnits="userSpaceOnUse">
      <stop offset="0" stop-color="#7C3AED"/>
      <stop offset="1" stop-color="#3B1E78"/>
    </linearGradient>
    <linearGradient id="pi" x1="34" x2="92" y1="32" y2="98" gradientUnits="userSpaceOnUse">
      <stop offset="0" stop-color="#FFE08A"/>
      <stop offset="1" stop-color="#F4B544"/>
    </linearGradient>
  </defs>
  <rect width="128" height="128" rx="28" fill="url(#bg)"/>
  <circle cx="64" cy="64" r="46" fill="none" stroke="#F4B544" stroke-width="5" opacity=".55"/>
  <path fill="url(#pi)" d="M34 43c0-4 3-7 7-7h54c4 0 7 3 7 7s-3 7-7 7h-9v33c0 6 2 9 6 9 4 0 7 3 7 7s-3 7-8 7c-13 0-20-8-20-23V50H58v49c0 4-3 7-7 7s-7-3-7-7V50h-3c-4 0-7-3-7-7Z"/>
  <path fill="#FFF7D6" d="M62 36h9v14h-9z" opacity=".9"/>
</svg>
