<svg width="128" height="128" viewBox="0 0 128 128" fill="none" xmlns="http://www.w3.org/2000/svg">
  <rect width="128" height="128" rx="28" fill="#101828"/>
  <circle cx="64" cy="64" r="45" fill="#1D4ED8"/>
  <path d="M38 44H70C82.7025 44 91 51.4209 91 62.5C91 70.7006 86.3838 76.8326 78.9135 79.4824L91.5 96H73.25L62.375 81H54.5V96H38V44ZM54.5 57.5V68H69.125C72.8149 68 75 65.999 75 62.75C75 59.501 72.8149 57.5 69.125 57.5H54.5Z" fill="white"/>
  <path d="M35 31C53 19 77 19 95 31" stroke="#38BDF8" stroke-width="7" stroke-linecap="round"/>
  <path d="M33 101C52 112 76 112 95 101" stroke="#38BDF8" stroke-width="7" stroke-linecap="round"/>
</svg>
