<svg xmlns="http://www.w3.org/2000/svg" viewBox="0 0 96 96" role="img" aria-labelledby="title desc">
  <title id="title">satUSD</title>
  <desc id="desc">Satoshi Stablecoin research logo</desc>
  <rect width="96" height="96" rx="20" fill="#0EA5E9"/>
  <circle cx="48" cy="48" r="34" fill="#FFFFFF" opacity="0.14"/>
  <path d="M28 37c0-8 7-14 20-14 8 0 15 2 20 6l-6 9c-4-3-9-5-15-5-5 0-8 1-8 4 0 8 31 2 31 22 0 9-8 15-22 15-9 0-18-3-24-8l6-9c5 4 12 7 19 7 6 0 9-2 9-5 0-8-30-2-30-22z" fill="#FFFFFF"/>
  <path d="M48 16v11M48 69v11" stroke="#FFFFFF" stroke-width="6" stroke-linecap="round" opacity="0.72"/>
</svg>
