<svg xmlns="http://www.w3.org/2000/svg" viewBox="0 0 120 120" role="img" aria-labelledby="title desc">
  <title id="title">Spiko EURSAFO</title>
  <desc id="desc">Spiko EURSAFO tokenized euro money-market fund research mark</desc>
  <rect width="120" height="120" rx="22" fill="#0F766E"/>
  <circle cx="60" cy="60" r="42" fill="#FFFFFF" opacity="0.12"/>
  <path d="M31 38h54v10H48.5c-4.5 0-7.5 2.4-7.5 6.2 0 3.7 2.7 5.8 7.8 5.8H66c12.4 0 21 7.2 21 19 0 13.2-9.8 22-25 22H34V91h28.4c7.4 0 12.1-4 12.1-10.4 0-6.1-4.4-10.2-11.9-10.2H47.9C36.5 70.4 28 64 28 53.8 28 44.4 35.2 38 47 38H31Z" fill="#FFFFFF"/>
  <text x="60" y="106" text-anchor="middle" font-family="Arial, Helvetica, sans-serif" font-size="13" font-weight="700" fill="#FFFFFF">EURSAFO</text>
</svg>
