<svg xmlns="http://www.w3.org/2000/svg" viewBox="0 0 512 512" role="img" aria-labelledby="title desc">
  <title id="title">Tagger research logo</title>
  <desc id="desc">A compact TAG monogram for the Research Map.</desc>
  <rect width="512" height="512" rx="96" fill="#7C3AED"/>
  <circle cx="256" cy="218" r="132" fill="#ffffff" opacity=".15"/>
  <path d="M156 284c0-63 43-107 105-107 39 0 72 16 93 45l-44 34c-12-17-29-25-50-25-29 0-49 21-49 53 0 31 21 52 52 52 17 0 32-4 44-13v-23h-52v-43h103v92c-26 23-58 34-98 34-62 0-104-39-104-95z" fill="#ffffff" opacity=".9"/>
  <text x="256" y="436" text-anchor="middle" font-family="Inter, Arial, sans-serif" font-size="48" font-weight="800" fill="#ffffff">TAG</text>
</svg>
