<svg xmlns="http://www.w3.org/2000/svg" viewBox="0 0 128 128" role="img" aria-labelledby="title desc">
  <title id="title">USDGO research logo</title>
  <desc id="desc">A stablecoin mark for the USDGO research card.</desc>
  <rect width="128" height="128" rx="24" fill="#062A2D"/>
  <circle cx="64" cy="64" r="42" fill="#0F766E"/>
  <circle cx="64" cy="64" r="31" fill="#E6FFFA"/>
  <path d="M45 65c0-11 8-19 19-19 7 0 13 3 17 8l-8 6c-2-3-5-5-9-5-5 0-9 4-9 10s4 10 10 10c4 0 7-1 9-4v-2H63v-8h21v14c-4 6-11 10-20 10-11 0-19-8-19-20Z" fill="#0F766E"/>
</svg>
